<svg xmlns="http://www.w3.org/2000/svg" viewBox="0 0 512 512">
  <defs>
    <linearGradient id="logo-blue-pink" x1="0%" y1="0%" x2="100%" y2="100%">
      <stop offset="0%" stop-color="#3B82F6" />
      <stop offset="100%" stop-color="#EC4899" />
    </linearGradient>
  </defs>
  <path d="M368 256c0 61.86-50.14 112-112 112s-112-50.14-112-112c0-54.8 39.4-100.31 91.56-109.81V131.5H224a124 124 0 1 0 124 124h-12c0 14.53-2.73 28.38-7.73 41.13-16.14 41.18-56.55 70.87-104.27 70.87-61.86 0-112-50.14-112-112s50.14-112 112-112c37.58 0 70.87 18.23 92 46.88" fill="url(#logo-blue-pink)" />
  <path d="M352 144l-32 32 32 32m32-32H320" stroke="#EC4899" stroke-width="45" stroke-linecap="round" stroke-linejoin="round" />
</svg>
